<svg width="60" height="60" viewBox="0 0 60 60" fill="none" xmlns="http://www.w3.org/2000/svg"><circle cx="30" cy="30" r="30" fill="url(#paint0_linear_122_431)"/><g filter="url(#filter0_b_122_431)"><path d="M19.6149 35.5234C19.446 35.5235 19.2807 35.4747 19.1389 35.3829C18.9971 35.2911 18.8849 35.1602 18.8159 35.0061C17.9805 33.1404 17.6253 31.0953 17.7826 29.0572C17.94 27.0191 18.6048 25.0528 19.7166 23.3374C20.8284 21.622 22.3518 20.2122 24.1479 19.2362C25.9441 18.2603 27.9559 17.7494 30.0001 17.75C30.2321 17.75 30.4547 17.8422 30.6188 18.0063C30.7829 18.1704 30.8751 18.3929 30.8751 18.625V30C30.8751 30.169 30.8262 30.3343 30.7343 30.4761C30.6424 30.6179 30.5114 30.73 30.3572 30.799L19.972 35.4447C19.8599 35.4959 19.7382 35.5227 19.6149 35.5234Z" fill="white"/><path d="M33.1494 19.7285C33.086 19.7157 33.0205 19.717 32.9576 19.7326C32.8948 19.7481 32.8362 19.7773 32.786 19.8183C32.7358 19.8592 32.6954 19.9107 32.6675 19.9691C32.6397 20.0276 32.6251 20.0915 32.625 20.1562V29.9999C32.6245 30.5066 32.4777 31.0023 32.2022 31.4274C31.9266 31.8526 31.5341 32.189 31.0718 32.3964L21.6399 36.6171C21.5814 36.6432 21.5294 36.6818 21.4875 36.7302C21.4456 36.7786 21.4148 36.8357 21.3973 36.8972C21.3799 36.9588 21.3761 37.0235 21.3864 37.0867C21.3966 37.1499 21.4206 37.2101 21.4567 37.263C22.1785 38.3246 23.0745 39.2567 24.1069 40.0198C26.0627 41.4748 28.4373 42.2572 30.875 42.2499C37.1471 42.2499 42.25 37.1471 42.25 30.8749C42.25 25.3816 38.3354 20.7851 33.1494 19.7285Z" fill="white"/></g><defs><filter id="filter0_b_122_431" x="12" y="12" width="36" height="36" filterUnits="userSpaceOnUse" color-interpolation-filters="sRGB"><feFlood flood-opacity="0" result="BackgroundImageFix"/><feGaussianBlur in="BackgroundImageFix" stdDeviation="2"/><feComposite in2="SourceAlpha" operator="in" result="effect1_backgroundBlur_122_431"/><feBlend mode="normal" in="SourceGraphic" in2="effect1_backgroundBlur_122_431" result="shape"/></filter><linearGradient id="paint0_linear_122_431" x1="30" y1="0" x2="30" y2="60" gradientUnits="userSpaceOnUse"><stop stop-color="#FF6079"/><stop offset="1" stop-color="#FE3051"/></linearGradient></defs></svg>
